<svg width="117" height="117" viewBox="0 0 117 117" fill="none" xmlns="http://www.w3.org/2000/svg">
<circle cx="58.5" cy="58.5" r="58.5" fill="#4A4D4E"/>
<rect x="35" y="45" width="47" height="19" fill="white"/>
<rect x="35" y="45" width="47" height="19" fill="url(#paint0_linear_1_23)"/>
<path d="M58.0001 28C41.4581 28 28.0001 40.112 28.0001 55C28.0001 60.204 29.6461 65.245 32.7681 69.604C32.1771 76.141 30.5931 80.994 28.2931 83.293C27.9891 83.597 27.9131 84.062 28.1051 84.446C28.2751 84.789 28.6251 85 29.0001 85C29.0461 85 29.0921 84.997 29.1391 84.99C29.5441 84.933 38.9521 83.579 45.7571 79.651C49.6211 81.21 53.7371 82 58.0001 82C74.5421 82 88.0001 69.888 88.0001 55C88.0001 40.112 74.5421 28 58.0001 28ZM44.0001 59C41.7941 59 40.0001 57.206 40.0001 55C40.0001 52.794 41.7941 51 44.0001 51C46.2061 51 48.0001 52.794 48.0001 55C48.0001 57.206 46.2061 59 44.0001 59ZM58.0001 59C55.7941 59 54.0001 57.206 54.0001 55C54.0001 52.794 55.7941 51 58.0001 51C60.2061 51 62.0001 52.794 62.0001 55C62.0001 57.206 60.2061 59 58.0001 59ZM72.0001 59C69.7941 59 68.0001 57.206 68.0001 55C68.0001 52.794 69.7941 51 72.0001 51C74.2061 51 76.0001 52.794 76.0001 55C76.0001 57.206 74.2061 59 72.0001 59Z" fill="white"/>
<defs>
<linearGradient id="paint0_linear_1_23" x1="82" y1="45" x2="30" y2="45" gradientUnits="userSpaceOnUse">
<stop stop-color="#007A78"/>
<stop offset="1" stop-color="#007A78" stop-opacity="0"/>
</linearGradient>
</defs>
</svg>
